<svg width="30" height="18" viewBox="0 0 30 18" fill="none" xmlns="http://www.w3.org/2000/svg">
<path d="M25.8193 11.3063C26.8144 12.2779 27.8647 13.192 28.7573 14.2615C29.1516 14.7369 29.5248 15.2273 29.8104 15.7789C30.215 16.563 29.8485 17.4258 29.1455 17.4727L24.775 17.4707C23.6477 17.5642 22.7485 17.1104 21.9924 16.3397C21.3873 15.7233 20.8269 15.0674 20.2451 14.4302C20.0065 14.1698 19.7569 13.9248 19.4586 13.7311C18.862 13.3439 18.3441 13.4624 18.0032 14.0847C17.6559 14.7176 17.5771 15.4184 17.543 16.1237C17.4962 17.1529 17.1851 17.4234 16.1514 17.4706C13.9421 17.5747 11.8454 17.2405 9.89753 16.126C8.18026 15.1435 6.84866 13.7564 5.68956 12.1862C3.43294 9.12856 1.70472 5.76868 0.151512 2.31469C-0.198116 1.53651 0.0575866 1.11879 0.91622 1.10397C2.34198 1.07625 3.76757 1.07825 5.19503 1.10198C5.77452 1.11047 6.15813 1.44282 6.3819 1.99026C7.15329 3.887 8.09718 5.69157 9.28194 7.36424C9.59747 7.80956 9.91921 8.25493 10.3773 8.56834C10.8841 8.9154 11.27 8.80038 11.5084 8.23577C11.6597 7.87776 11.726 7.49215 11.7601 7.10878C11.8731 5.78965 11.888 4.47276 11.6899 3.15827C11.5682 2.3379 11.1061 1.8068 10.2875 1.65159C9.86982 1.57243 9.93198 1.41698 10.1342 1.17856C10.4855 0.767349 10.8159 0.511353 11.4746 0.511353H16.4139C17.1915 0.66481 17.3642 1.01415 17.4707 1.79655L17.4749 7.28309C17.4664 7.58596 17.6262 8.48485 18.1717 8.6853C18.6084 8.82803 18.8962 8.4787 19.1582 8.20184C20.3408 6.9467 21.1849 5.46335 21.9389 3.92737C22.2735 3.25196 22.5613 2.55059 22.8401 1.84975C23.0467 1.32973 23.3709 1.07385 23.9567 1.08516L28.7105 1.08938C28.8515 1.08938 28.9941 1.09143 29.1306 1.11481C29.9317 1.25133 30.1512 1.59592 29.9038 2.37815C29.514 3.6054 28.7555 4.62815 28.0138 5.65559C27.2211 6.75252 26.3732 7.81196 25.587 8.9154C24.8647 9.92321 24.922 10.4311 25.8193 11.3063Z" fill="#436EAB"/>
</svg>
